<?xml version="1.0" encoding="UTF-8" standalone="no"?>
<svg width="300" height="300" viewBox="0 0 300 300" xmlns="http://www.w3.org/2000/svg">
  <defs>
    <style>
      .circuit { stroke: #9a2b2b; stroke-width: 1; fill: none; opacity: 0.7; }
      .node { fill: #9a2b2b; opacity: 0.8; }
    </style>
  </defs>
  
  <!-- Circuit lines -->
  <path class="circuit" d="M10,50 L100,50 L100,150 L200,150 L200,250" />
  <path class="circuit" d="M50,10 L50,100 L150,100 L150,200 L250,200" />
  <path class="circuit" d="M150,50 L200,50 L200,100" />
  <path class="circuit" d="M50,150 L100,150 L100,200" />
  <path class="circuit" d="M250,50 L150,50" />
  <path class="circuit" d="M10,200 L50,200 L50,250" />
  <path class="circuit" d="M250,100 L200,100" />
  
  <!-- Circuit nodes -->
  <circle class="node" cx="50" cy="50" r="3" />
  <circle class="node" cx="100" cy="100" r="3" />
  <circle class="node" cx="150" cy="150" r="3" />
  <circle class="node" cx="200" cy="200" r="3" />
  <circle class="node" cx="100" cy="150" r="3" />
  <circle class="node" cx="150" cy="50" r="3" />
  <circle class="node" cx="200" cy="100" r="3" />
  <circle class="node" cx="50" cy="200" r="3" />
</svg>